<svg xmlns="http://www.w3.org/2000/svg" id="Layer_1" data-name="Layer 1" viewBox="0 0 1018.47 376.94">
  <path d="M149.85,481.28C57.38,483-27.17,415.63-39.71,319.11c-9-69.44,14.22-127.68,68.17-172.78,29.19-24.41,63.35-38.12,101.19-41.22,51.77-4.23,98.26,9.8,138.46,43.22a183.2,183.2,0,0,1,43.22,52,8.9,8.9,0,0,0,6.05,4.62c38.86,10.1,64.75,38.39,69.47,78,6.47,54.44-27.47,94.34-71.28,103.49a11.16,11.16,0,0,0-7.85,5.3c-32.64,51.09-78.9,80.88-139.19,88.72C161.38,481.39,154.24,481.15,149.85,481.28Zm123.46-94.55c-2.49-.78-4.21-1.34-5.95-1.86a91.17,91.17,0,0,1-65.5-83.21c-2.38-46.94,26-86.68,71-96.87,3.62-.82,3-2.14,1.32-4.26-3.13-3.9-6-8-9.35-11.72C220.64,139.68,154,122.7,92,145.74A156.29,156.29,0,0,0-2,343.12c28.8,85.43,120.55,128.3,205.06,96.78C231.44,429.33,254.46,411.46,273.31,386.73ZM295.17,241.2c-25.73-.5-53.11,18.4-53.43,54.16-.29,33.82,25.54,54.27,52.09,54.44,30.06.19,53.68-23.42,53.87-53.87C347.89,265.65,324.53,241.31,295.17,241.2Z" transform="translate(236.26 -104.38)"/>
  <path d="M-139.2,333.93c5.65-15,11.15-29.6,16.67-44.22,9.89-26.18,19.87-52.33,29.6-78.57,1.52-4.08,3.59-5.67,8-5.57,11.65.28,23.33.25,35,0,4.43-.09,6.21,1.2,6.2,5.91q-.18,84,0,168c0,4.68-1.73,6.05-6.18,5.92-8.83-.26-17.67-.28-26.5,0-4.6.14-6-1.48-6-6,.15-31.83.08-63.66.08-95.49v-5.49l-.64-.21Q-88.15,292-93.31,305.84c-9.33,25-18.71,49.92-27.91,74.94-1.24,3.35-3,4.7-6.58,4.61-8-.2-16-.26-24,0-4.07.15-5.84-1.52-7.2-5.19-12.29-33.29-24.76-66.51-37.18-99.75a4.27,4.27,0,0,0-1.49-2.17v12.2q0,44,0,88c0,6.81,0,6.83-7,6.84-8.5,0-17-.2-25.5.09-4.59.15-6.1-1.49-6.08-6,.15-25.34.07-50.67.07-76q0-45.49,0-91c0-6.59.15-6.72,6.72-6.73,11.67,0,23.34.18,35-.1,4.27-.1,6.15,1.55,7.59,5.39q22.55,59.88,45.38,119.63C-141.11,331.63-141,332.9-139.2,333.93Z" transform="translate(236.26 -104.38)"/>
  <path d="M737.06,272.67c12.34,0,24.67.12,37-.07,4-.07,6,.94,6.62,5.29,4.06,29.48.74,57.26-18.63,81.26-13.68,16.94-32,25.77-53.28,28.52-23,3-44.89-.4-64.57-13.43-22.47-14.86-35-36.28-39.05-62.52-4.4-28.15,1.24-54.17,19.59-76.49,16.76-20.41,38.88-30.83,65.12-32.51a138.87,138.87,0,0,1,50.78,5.77c4.72,1.48,6.71,3.84,6.53,8.92-.35,9.82,0,19.67-.13,29.5,0,5.29-.68,5.67-5.44,3.56a113.45,113.45,0,0,0-40.14-9.3c-33.68-1.89-56.25,22.68-57.77,50.71-1.35,24.83,14,49.43,37.56,56.14,19.89,5.67,41.51-1.14,52.41-16.56a36.11,36.11,0,0,0,6.53-19.13c.21-3.62-1.16-5.09-4.89-5-12,.14-24-.11-36,.12-4.43.09-5.85-1.48-5.71-5.8.27-7.82.24-15.66,0-23.49-.12-4.09,1.32-5.58,5.46-5.52C711.73,272.79,724.4,272.67,737.06,272.67Z" transform="translate(236.26 -104.38)"/>
  <path d="M493.19,272.14c0,19.16.15,38.31-.06,57.46-.12,10.36-1.68,20.54-5.69,30.25-5.51,13.35-15.1,22.38-29,26.08-18.63,4.95-36.9,3.29-54.58-4.66-3.85-1.74-5.41-4.15-5.29-8.46.28-10.32.05-20.65.12-31,0-1.56-.85-3.77.9-4.55s2.83,1.35,4.08,2.31c8.89,6.8,18.72,10.69,30.09,10.19,10.62-.46,18-6.63,19.77-17a75.9,75.9,0,0,0,1.08-12.41q.12-54,.05-107.92c0-6.7,0-6.72,6.6-6.74,8.66,0,17.33.22,26-.09,4.69-.16,6,1.66,6,6.1C493.1,231.84,493.19,252,493.19,272.14Z" transform="translate(236.26 -104.38)"/>
  <path d="M529.81,295q0-41,0-81.95c0-7.37,0-7.37,7.57-7.38q12,0,24,0c6.94,0,7,0,7,6.87q0,65.22,0,130.43c0,12.33-.12,24.65.07,37,.06,4.15-1.46,5.54-5.53,5.44-8.66-.21-17.32-.05-26-.06-7,0-7.07,0-7.07-7.37Q529.79,336.49,529.81,295Z" transform="translate(236.26 -104.38)"/>
  <path d="M177.33,295.6c1.67,46.21-33.93,92.84-92.19,93.09C30.19,388.92-8.7,347-8.17,294.4c.5-50.23,37.65-92,93-92.09C142.55,202.25,179.05,248.43,177.33,295.6Zm-92.4-54.4c-26.45-.33-53.14,19.37-53.19,54.4,0,34.63,26.63,54.33,52.83,54.24,29.6-.1,53.05-23.86,53.13-54.14S114.37,241.24,84.93,241.2Z" transform="translate(236.26 -104.38)"/>
</svg>